<?xml version="1.0" standalone="no"?>
<!DOCTYPE svg PUBLIC "-//W3C//DTD SVG 20010904//EN"
 "http://www.w3.org/TR/2001/REC-SVG-20010904/DTD/svg10.dtd">
<svg version="1.0" xmlns="http://www.w3.org/2000/svg"
 width="110.000000pt" height="35.000000pt" viewBox="0 0 110.000000 35.000000"
 preserveAspectRatio="xMidYMid meet">
<metadata>
Created by potrace 1.16, written by Peter Selinger 2001-2019
</metadata>
<g transform="translate(0.000000,35.000000) scale(0.007270,-0.005178)"
fill="#000000" stroke="none">
<path d="M60 3410 l0 -3300 1510 0 1510 0 0 100 0 100 -1410 0 -1410 0 0 3100
0 3100 7300 0 7300 0 0 -3100 0 -3100 -1410 0 -1410 0 0 -100 0 -100 1510 0
1510 0 0 3300 0 3300 -7500 0 -7500 0 0 -3300z"/>
<path d="M12615 4494 c-107 -21 -136 -30 -178 -51 -88 -44 -152 -130 -177
-235 -5 -24 -10 -85 -10 -135 l0 -93 -108 0 c-139 0 -142 -3 -142 -123 0 -122
6 -127 145 -127 l105 0 0 -469 c0 -414 2 -471 16 -485 12 -13 39 -16 133 -16
102 0 120 3 134 18 15 17 17 65 17 485 l0 467 155 0 c195 0 195 0 195 123 0
129 3 127 -192 127 l-161 0 5 83 c5 96 20 133 67 164 31 21 46 23 151 23 149
0 150 1 150 127 0 123 0 123 -161 122 -68 -1 -133 -3 -144 -5z"/>
<path d="M8706 4419 c-217 -30 -392 -145 -474 -312 -70 -141 -76 -187 -76
-527 0 -282 2 -311 22 -383 61 -221 185 -354 397 -424 75 -25 92 -27 260 -28
205 0 254 9 393 76 162 78 277 229 303 397 16 109 11 112 -153 112 -71 0 -138
-4 -148 -10 -11 -6 -26 -34 -35 -67 -43 -149 -123 -219 -281 -243 -210 -33
-373 68 -412 255 -17 80 -25 359 -14 505 16 214 60 298 191 359 50 23 67 26
166 25 130 -1 200 -22 260 -81 39 -38 80 -115 91 -170 12 -61 30 -68 181 -68
160 0 167 4 157 90 -29 230 -202 409 -459 475 -93 24 -270 33 -369 19z"/>
<path d="M13234 4416 c-18 -13 -19 -30 -22 -225 l-3 -211 -104 0 c-130 0 -135
-5 -135 -125 0 -116 4 -119 133 -123 l105 -4 5 -321 c5 -337 9 -374 55 -462
25 -50 73 -99 126 -130 68 -40 156 -55 318 -55 179 0 178 -1 178 128 0 75 -2
85 -25 107 -23 24 -31 25 -135 25 -135 0 -162 11 -193 78 -20 44 -21 68 -25
340 l-4 292 155 0 c202 0 202 0 202 129 0 60 -4 94 -13 103 -9 9 -61 14 -175
18 l-162 5 -3 204 c-2 173 -5 208 -19 223 -14 15 -33 18 -128 18 -80 0 -117
-4 -131 -14z"/>
<path d="M1246 4378 c-14 -20 -16 -112 -16 -798 0 -686 2 -778 16 -798 14 -21
22 -22 153 -22 93 0 141 4 149 12 17 17 17 1599 0 1616 -8 8 -56 12 -149 12
-131 0 -139 -1 -153 -22z"/>
<path d="M2406 3984 c-57 -18 -111 -51 -166 -101 l-40 -35 0 50 c0 76 -10 82
-144 82 -97 0 -115 -3 -129 -18 -15 -17 -17 -73 -17 -594 0 -544 1 -576 18
-591 27 -25 253 -25 273 0 11 13 15 97 19 412 l5 397 26 49 c15 30 42 62 68
80 39 27 50 30 125 30 73 0 87 -3 124 -28 26 -17 52 -46 69 -80 l28 -52 3
-395 c3 -345 5 -397 19 -412 14 -15 34 -18 133 -18 78 0 122 4 132 13 15 11
17 56 20 402 3 382 4 391 26 440 44 96 103 135 205 135 122 0 195 -68 217
-200 5 -36 10 -221 10 -412 0 -302 2 -349 16 -362 12 -13 39 -16 133 -16 103
0 120 2 135 19 16 18 17 52 14 438 -4 400 -5 421 -26 484 -26 80 -89 176 -137
213 -74 56 -143 80 -247 84 -78 3 -110 0 -165 -16 -82 -25 -166 -82 -208 -139
-16 -23 -32 -42 -35 -42 -3 -1 -14 15 -25 35 -26 49 -87 102 -154 132 -48 23
-72 27 -166 29 -78 2 -124 -2 -159 -13z"/>
<path d="M4360 3984 c-139 -37 -249 -116 -299 -216 -58 -116 -47 -128 116
-128 l122 0 31 45 c50 72 97 98 189 103 88 5 136 -7 181 -45 33 -28 60 -102
60 -168 l0 -41 -191 -28 c-293 -43 -411 -83 -515 -178 -71 -66 -98 -129 -99
-233 0 -68 4 -89 28 -137 47 -96 160 -180 278 -207 65 -15 207 -13 272 4 79
21 131 49 188 102 l49 46 0 -55 c0 -82 11 -88 152 -88 100 0 117 2 132 19 16
17 17 55 14 457 -3 434 -4 440 -27 497 -50 126 -164 218 -313 252 -86 19 -293
19 -368 -1z m397 -729 c-10 -143 -69 -235 -175 -276 -77 -28 -188 -24 -250 11
-110 62 -110 190 0 253 53 31 96 43 263 72 187 33 169 40 162 -60z"/>
<path d="M5686 3989 c-55 -13 -150 -66 -190 -105 -115 -112 -166 -266 -166
-504 0 -159 19 -258 67 -359 80 -168 225 -251 436 -251 135 0 215 27 316 109
l43 35 -4 -135 c-3 -121 -6 -141 -29 -185 -43 -83 -114 -116 -251 -116 -124 0
-180 35 -237 150 l-21 42 -134 0 c-155 0 -172 -7 -163 -67 25 -150 174 -289
367 -340 91 -24 319 -23 410 1 154 42 256 119 315 240 63 127 66 165 63 845
-3 583 -4 603 -22 617 -26 19 -234 20 -260 1 -11 -8 -19 -32 -23 -69 l-6 -57
-49 44 c-27 25 -79 59 -115 77 -62 30 -73 32 -187 35 -67 1 -138 -2 -160 -8z
m351 -260 c105 -51 153 -159 153 -344 0 -143 -22 -222 -80 -287 -52 -60 -105
-81 -200 -81 -84 0 -135 20 -182 70 -114 120 -114 475 0 597 44 47 97 66 186
66 61 0 90 -5 123 -21z"/>
<path d="M7180 3984 c-277 -73 -424 -314 -407 -664 10 -192 54 -312 154 -421
61 -66 159 -121 254 -144 86 -20 264 -19 348 1 153 37 294 134 345 236 30 61
31 71 10 92 -12 13 -41 16 -145 16 l-130 0 -47 -49 c-85 -87 -181 -117 -284
-87 -99 28 -171 129 -184 254 l-7 62 405 0 c470 0 438 -8 438 102 0 108 -27
233 -70 325 -67 143 -188 242 -342 278 -80 19 -265 18 -338 -1z m275 -213 c88
-39 141 -124 152 -238 l6 -63 -263 0 -263 0 6 65 c11 117 65 199 157 239 49
21 156 20 205 -3z"/>
<path d="M11100 3985 c-80 -22 -170 -69 -223 -115 -61 -54 -115 -159 -101
-198 l9 -27 130 0 129 0 29 43 c46 69 94 95 186 100 88 5 136 -7 181 -45 33
-28 60 -102 60 -168 l0 -41 -191 -28 c-223 -32 -304 -53 -401 -102 -148 -75
-212 -167 -212 -309 0 -101 23 -155 96 -228 88 -89 189 -126 338 -127 143 0
244 35 331 117 l49 46 0 -55 c0 -82 11 -88 152 -88 100 0 117 2 132 19 16 17
17 56 14 457 -3 433 -3 440 -26 497 -47 115 -133 194 -262 238 -85 29 -333 37
-420 14z m398 -728 c-13 -198 -127 -307 -313 -295 -120 8 -195 67 -195 154 0
74 64 136 170 164 48 13 292 57 324 59 17 1 18 -5 14 -82z"/>
<path d="M9807 3962 c-15 -17 -17 -73 -17 -594 0 -544 1 -576 18 -591 15 -14
41 -17 145 -17 119 0 127 1 141 22 14 19 16 72 16 378 0 219 4 370 11 393 6
21 26 56 45 77 51 56 102 70 254 70 169 0 165 -3 165 138 0 141 -1 142 -116
142 -152 0 -248 -32 -335 -112 l-44 -41 0 61 c0 88 -6 92 -149 92 -102 0 -120
-3 -134 -18z"/>
<path d="M4410 300 l0 -260 25 0 25 0 0 118 c0 135 8 155 69 173 31 9 43 8 69
-5 40 -21 52 -63 52 -188 0 -98 0 -98 25 -98 l25 0 0 120 c0 134 -12 177 -55
206 -35 23 -113 23 -145 1 -14 -9 -28 -17 -32 -17 -5 0 -8 47 -8 105 l0 105
-25 0 -25 0 0 -260z"/>
<path d="M6320 450 l0 -111 -27 20 c-48 34 -128 32 -173 -5 -44 -37 -63 -81
-64 -144 -1 -97 57 -169 143 -178 37 -3 53 1 84 22 35 24 37 24 37 6 0 -16 7
-20 30 -20 l30 0 0 260 0 260 -30 0 -30 0 0 -110z m-49 -133 c112 -75 43 -267
-83 -231 -96 28 -100 193 -7 241 34 18 52 16 90 -10z"/>
<path d="M10959 541 c-19 -16 -24 -30 -27 -89 -4 -68 -5 -71 -31 -74 -15 -2
-27 -10 -29 -20 -3 -14 3 -18 27 -18 l31 0 0 -150 0 -150 30 0 30 0 0 150 0
150 45 0 c38 0 45 3 45 20 0 17 -7 20 -45 20 l-46 0 3 63 3 62 36 3 c30 3 38
8 42 28 4 23 2 24 -43 24 -32 0 -56 -6 -71 -19z"/>
<path d="M7787 526 c-114 -41 -167 -121 -167 -251 1 -104 46 -179 135 -221 56
-27 148 -32 206 -13 43 15 41 12 34 41 -6 24 -8 25 -43 12 -156 -56 -294 65
-263 229 19 105 78 157 177 157 34 0 75 -5 90 -10 31 -12 33 -11 36 21 3 21
-3 25 -42 36 -60 15 -117 15 -163 -1z"/>
<path d="M3700 518 c0 -7 30 -118 67 -246 l66 -233 35 3 35 3 56 187 c31 103
59 190 63 193 3 4 18 -33 33 -82 15 -48 41 -135 59 -193 l32 -105 35 -3 34 -3
63 223 c35 123 65 233 69 246 5 19 2 22 -26 22 -25 0 -32 -5 -37 -27 -4 -16
-29 -109 -54 -208 -41 -153 -49 -176 -57 -155 -6 14 -34 105 -63 203 l-54 177
-32 0 c-32 0 -33 -1 -59 -87 -57 -189 -96 -313 -99 -313 -2 0 -27 92 -56 205
l-53 205 -29 0 c-15 0 -28 -5 -28 -12z"/>
<path d="M5920 285 l0 -245 30 0 30 0 0 245 0 245 -30 0 -30 0 0 -245z"/>
<path d="M10410 285 l0 -245 145 0 145 0 0 25 0 25 -115 0 -115 0 0 220 0 220
-30 0 -30 0 0 -245z"/>
<path d="M9640 425 c0 -43 -1 -45 -30 -45 -23 0 -30 -5 -30 -19 0 -14 8 -21
28 -23 l27 -3 3 -132 c3 -129 3 -132 29 -152 36 -29 113 -30 113 -2 0 15 -10
21 -40 26 -48 8 -53 24 -48 165 l3 95 43 3 c34 3 42 7 42 23 0 16 -7 19 -45
19 l-45 0 0 45 c0 41 -2 45 -25 45 -23 0 -25 -4 -25 -45z"/>
<path d="M4903 380 c-67 -16 -108 -58 -124 -127 -33 -147 99 -257 253 -211 31
9 38 16 36 32 -2 13 -9 19 -18 17 -8 -2 -38 -6 -66 -8 -79 -8 -132 27 -149
100 l-7 27 132 0 133 0 -7 47 c-3 26 -13 57 -21 70 -28 43 -103 68 -162 53z"/>
<path d="M5290 379 c-14 -6 -37 -22 -52 -36 l-28 -27 0 32 c0 27 -4 32 -25 32
l-25 0 0 -170 0 -170 30 0 30 0 0 125 0 124 30 16 c16 8 40 15 55 15 22 0 25
4 25 35 0 38 -2 39 -40 24z"/>
<path d="M5481 380 c-45 -11 -82 -39 -104 -81 -26 -50 -20 -153 12 -198 44
-61 135 -86 222 -59 30 9 39 16 39 34 0 21 -3 22 -32 13 -52 -15 -110 -10
-145 11 -34 20 -46 38 -57 83 l-6 27 131 0 132 0 -6 46 c-10 94 -90 147 -186
124z"/>
<path d="M6574 380 c-107 -25 -157 -155 -101 -260 40 -76 130 -107 230 -79 30
8 37 15 37 34 0 22 -2 24 -26 15 -93 -36 -204 18 -204 100 0 19 6 20 126 20
l127 0 -5 50 c-5 50 -30 90 -68 110 -26 13 -84 18 -116 10z"/>
<path d="M6903 378 c-46 -10 -66 -28 -58 -50 5 -13 11 -14 47 -1 43 15 90 10
107 -10 5 -7 12 -24 16 -38 6 -25 4 -27 -42 -33 -76 -11 -111 -25 -138 -57
-79 -95 43 -207 147 -135 l38 25 24 -24 c29 -29 61 -32 70 -8 5 11 0 23 -14
33 -19 15 -23 30 -29 134 -7 106 -10 119 -32 140 -29 28 -79 37 -136 24z m117
-211 c0 -49 -16 -70 -68 -88 -46 -16 -82 8 -82 55 0 48 39 73 118 75 31 1 32
0 32 -42z"/>
<path d="M7251 383 c-87 -17 -118 -123 -49 -166 13 -8 41 -20 63 -27 51 -16
75 -37 75 -66 0 -43 -76 -58 -145 -30 l-35 15 0 -28 c0 -24 6 -30 39 -39 77
-24 167 -6 190 36 33 62 -2 128 -81 151 -84 25 -109 59 -71 96 17 17 88 18
126 1 14 -7 17 -3 17 17 0 16 -7 28 -17 31 -33 9 -88 14 -112 9z"/>
<path d="M8171 380 c-79 -19 -126 -83 -126 -176 0 -80 34 -134 99 -159 122
-47 235 32 236 164 0 117 -98 197 -209 171z m106 -66 c30 -19 43 -53 43 -109
0 -81 -39 -125 -112 -125 -86 0 -133 100 -93 196 25 60 102 78 162 38z"/>
<path d="M8573 379 c-18 -5 -35 -14 -38 -19 -10 -15 -35 -12 -35 5 0 8 -9 15
-20 15 -19 0 -20 -7 -20 -170 l0 -170 25 0 25 0 0 125 c0 113 2 126 21 144 42
39 125 35 148 -8 6 -11 11 -74 11 -140 l0 -121 29 0 29 0 4 125 c3 112 5 127
25 146 32 32 108 33 134 0 16 -20 19 -40 19 -147 l0 -124 31 0 31 0 -4 134
c-3 118 -6 138 -24 163 -44 60 -156 64 -209 8 l-22 -25 -23 25 c-13 14 -40 29
-59 35 -41 11 -35 11 -78 -1z"/>
<path d="M9185 381 c-48 -12 -82 -39 -105 -85 -54 -113 9 -244 126 -262 62 -9
158 12 150 33 -3 8 -6 19 -6 24 0 5 -11 4 -26 -1 -71 -27 -161 -2 -187 53 -32
67 -31 67 108 67 l125 0 0 41 c0 92 -87 153 -185 130z"/>
<path d="M9951 380 c-77 -18 -124 -81 -125 -169 -1 -75 32 -133 89 -161 152
-73 293 71 230 236 -28 73 -111 113 -194 94z m122 -81 c23 -25 27 -38 27 -85
0 -67 -19 -107 -60 -124 -34 -14 -93 -8 -117 12 -22 18 -43 71 -43 109 0 112
120 167 193 88z"/>
<path d="M11243 380 c-95 -22 -150 -119 -124 -218 29 -104 135 -155 253 -120
31 9 38 16 36 32 -2 13 -9 19 -18 17 -42 -11 -127 -11 -149 1 -30 16 -58 54
-67 91 l-6 27 132 0 133 0 -6 45 c-4 25 -14 57 -23 71 -30 45 -101 69 -161 54z"/>
<path d="M10750 210 l0 -170 30 0 30 0 0 170 0 170 -30 0 -30 0 0 -170z"/>
</g>
</svg>
